# xmcd
#
# Track frame offsets: 
#        150
#        20122
#        39892
#        61950
#        82702
#        102550
#        121040
#        139895
#        158480
#        183042
#
# Disc length: 2726 seconds
#
# Revision: 0
# Processed by: cddbd v1.5.1PL0 Copyright (c) Steve Scherf et al.
# Submitted via: ExactAudioCopy v0.95b2
#
DISCID=700aa40a
DTITLE=柯以敏 - 我會永遠愛你
DYEAR=1999
DGENRE=Pop
TTITLE0=敏感
TTITLE1=愛我
TTITLE2=太傻
TTITLE3=愛在舌尖
TTITLE4=多情人
TTITLE5=想得太美
TTITLE6=舊愛
TTITLE7=寂寞公路上
TTITLE8=海報
TTITLE9=當淚\滑過臉旁
EXTD=
EXTT0=
EXTT1=
EXTT2=
EXTT3=
EXTT4=
EXTT5=
EXTT6=
EXTT7=
EXTT8=
EXTT9=
PLAYORDER=
